<svg width="35" height="35" viewBox="0 0 35 35" fill="none" xmlns="http://www.w3.org/2000/svg">
<g clip-path="url(#clip0_4_49)">
<path d="M16.7256 10.6181C16.8272 10.72 16.9479 10.8008 17.0808 10.8559C17.2137 10.9111 17.3561 10.9395 17.5 10.9395C17.6439 10.9395 17.7863 10.9111 17.9192 10.8559C18.0521 10.8008 18.1728 10.72 18.2744 10.6181L21.5556 7.33687C21.6573 7.23518 21.738 7.11446 21.793 6.98159C21.848 6.84872 21.8764 6.70631 21.8764 6.5625C21.8764 6.41869 21.848 6.27628 21.793 6.14341C21.738 6.01054 21.6573 5.88982 21.5556 5.78812C21.4539 5.68643 21.3332 5.60577 21.2003 5.55073C21.0675 5.49569 20.9251 5.46737 20.7812 5.46737C20.6374 5.46737 20.495 5.49569 20.3622 5.55073C20.2293 5.60577 20.1086 5.68643 20.0069 5.78812L18.5937 7.20344V3.28125C18.5937 2.99117 18.4785 2.71297 18.2734 2.50785C18.0683 2.30273 17.7901 2.1875 17.5 2.1875C17.2099 2.1875 16.9317 2.30273 16.7266 2.50785C16.5215 2.71297 16.4062 2.99117 16.4062 3.28125V7.20344L14.9931 5.78812C14.8914 5.68643 14.7707 5.60577 14.6378 5.55073C14.505 5.49569 14.3626 5.46737 14.2187 5.46737C14.0749 5.46737 13.9325 5.49569 13.7996 5.55073C13.6668 5.60577 13.5461 5.68643 13.4444 5.78812C13.3427 5.88982 13.262 6.01054 13.207 6.14341C13.1519 6.27628 13.1236 6.41869 13.1236 6.5625C13.1236 6.70631 13.1519 6.84872 13.207 6.98159C13.262 7.11446 13.3427 7.23518 13.4444 7.33687L16.7256 10.6181ZM5.1253 9.5025C5.33041 9.29745 5.60856 9.18226 5.89858 9.18226C6.18861 9.18226 6.46676 9.29745 6.67186 9.5025L9.76499 12.5934C9.96422 12.7997 10.0745 13.076 10.072 13.3628C10.0695 13.6496 9.95446 13.9239 9.75167 14.1267C9.54887 14.3295 9.27455 14.4445 8.98777 14.447C8.70099 14.4495 8.42471 14.3392 8.21843 14.14L5.1253 11.0469C4.92026 10.8418 4.80507 10.5636 4.80507 10.2736C4.80507 9.98357 4.92026 9.70542 5.1253 9.50031V9.5025ZM29.8747 9.5025C30.0791 9.70752 30.1938 9.9852 30.1938 10.2747C30.1938 10.5642 30.0791 10.8419 29.8747 11.0469L26.7816 14.14C26.6807 14.2445 26.56 14.3278 26.4265 14.3851C26.2931 14.4424 26.1496 14.4726 26.0043 14.4739C25.8591 14.4751 25.7151 14.4475 25.5807 14.3925C25.4462 14.3375 25.3241 14.2563 25.2214 14.1536C25.1187 14.0509 25.0375 13.9287 24.9825 13.7943C24.9275 13.6599 24.8999 13.5159 24.9011 13.3707C24.9024 13.2254 24.9326 13.0819 24.9899 12.9485C25.0472 12.815 25.1305 12.6943 25.235 12.5934L28.3281 9.50031C28.5332 9.29527 28.8114 9.18008 29.1014 9.18008C29.3914 9.18008 29.6696 9.29527 29.8747 9.50031V9.5025ZM17.5 15.3125C18.6521 15.3121 19.784 15.6151 20.7819 16.191C21.7799 16.7668 22.6086 17.5952 23.1848 18.5929C23.761 19.5906 24.0644 20.7224 24.0645 21.8745C24.0646 23.0266 23.7614 24.1585 23.1853 25.1562H11.8125C11.2363 24.1583 10.9331 23.0263 10.9333 21.8739C10.9335 20.7216 11.2371 19.5897 11.8135 18.5919C12.39 17.5942 13.2191 16.7658 14.2173 16.1901C15.2155 15.6145 16.3477 15.3118 17.5 15.3125ZM25.6156 25.1562C26.1519 23.8281 26.354 22.3886 26.2041 20.9641C26.0542 19.5396 25.5569 18.1737 24.7558 16.9863C23.9548 15.7989 22.8744 14.8263 21.6097 14.1539C20.345 13.4815 18.9345 13.1299 17.5022 13.1299C16.0698 13.1299 14.6594 13.4815 13.3946 14.1539C12.1299 14.8263 11.0496 15.7989 10.2485 16.9863C9.44746 18.1737 8.95014 19.5396 8.80023 20.9641C8.65032 22.3886 8.8524 23.8281 9.38874 25.1562H1.09155C0.801472 25.1562 0.523273 25.2715 0.318155 25.4766C0.113037 25.6817 -0.00219727 25.9599 -0.00219727 26.25C-0.00219727 26.5401 0.113037 26.8183 0.318155 27.0234C0.523273 27.2285 0.801472 27.3438 1.09155 27.3438H33.904C34.1941 27.3438 34.4723 27.2285 34.6774 27.0234C34.8826 26.8183 34.9978 26.5401 34.9978 26.25C34.9978 25.9599 34.8826 25.6817 34.6774 25.4766C34.4723 25.2715 34.1941 25.1562 33.904 25.1562H25.6134H25.6156ZM-9.76585e-06 21.875C-9.76585e-06 21.5849 0.115224 21.3067 0.320342 21.1016C0.52546 20.8965 0.80366 20.7812 1.09374 20.7812H5.46874C5.75882 20.7812 6.03702 20.8965 6.24214 21.1016C6.44726 21.3067 6.56249 21.5849 6.56249 21.875C6.56249 22.1651 6.44726 22.4433 6.24214 22.6484C6.03702 22.8535 5.75882 22.9688 5.46874 22.9688H1.09374C0.80366 22.9688 0.52546 22.8535 0.320342 22.6484C0.115224 22.4433 -9.76585e-06 22.1651 -9.76585e-06 21.875ZM28.4375 21.875C28.4375 21.5849 28.5527 21.3067 28.7578 21.1016C28.963 20.8965 29.2412 20.7812 29.5312 20.7812H33.9062C34.1963 20.7812 34.4745 20.8965 34.6796 21.1016C34.8848 21.3067 35 21.5849 35 21.875C35 22.1651 34.8848 22.4433 34.6796 22.6484C34.4745 22.8535 34.1963 22.9688 33.9062 22.9688H29.5312C29.2412 22.9688 28.963 22.8535 28.7578 22.6484C28.5527 22.4433 28.4375 22.1651 28.4375 21.875Z" fill="white"/>
</g>
<defs>
<clipPath id="clip0_4_49">
<rect width="35" height="35" fill="white"/>
</clipPath>
</defs>
</svg>
