<svg width="35" height="35" viewBox="0 0 35 35" fill="none" xmlns="http://www.w3.org/2000/svg">
<g clip-path="url(#clip0_4_47)">
<path d="M16.7256 2.50688C16.8272 2.40502 16.9479 2.32421 17.0808 2.26907C17.2137 2.21393 17.3561 2.18555 17.5 2.18555C17.6439 2.18555 17.7863 2.21393 17.9192 2.26907C18.0521 2.32421 18.1728 2.40502 18.2744 2.50688L21.5556 5.78813C21.6573 5.88982 21.738 6.01055 21.793 6.14341C21.8481 6.27628 21.8764 6.41869 21.8764 6.5625C21.8764 6.70632 21.8481 6.84872 21.793 6.98159C21.738 7.11446 21.6573 7.23519 21.5556 7.33688C21.4539 7.43857 21.3332 7.51924 21.2003 7.57427C21.0675 7.62931 20.9251 7.65763 20.7812 7.65763C20.6374 7.65763 20.495 7.62931 20.3622 7.57427C20.2293 7.51924 20.1086 7.43857 20.0069 7.33688L18.5937 5.92156V9.84375C18.5937 10.1338 18.4785 10.412 18.2734 10.6172C18.0683 10.8223 17.7901 10.9375 17.5 10.9375C17.2099 10.9375 16.9317 10.8223 16.7266 10.6172C16.5215 10.412 16.4062 10.1338 16.4062 9.84375V5.92156L14.9931 7.33688C14.8914 7.43857 14.7707 7.51924 14.6378 7.57427C14.505 7.62931 14.3626 7.65763 14.2187 7.65763C14.0749 7.65763 13.9325 7.62931 13.7997 7.57427C13.6668 7.51924 13.5461 7.43857 13.4444 7.33688C13.3427 7.23519 13.262 7.11446 13.207 6.98159C13.1519 6.84872 13.1236 6.70632 13.1236 6.5625C13.1236 6.41869 13.1519 6.27628 13.207 6.14341C13.262 6.01055 13.3427 5.88982 13.4444 5.78813L16.7256 2.50688ZM5.12531 9.50031C5.33042 9.29527 5.60857 9.18008 5.89859 9.18008C6.18862 9.18008 6.46677 9.29527 6.67187 9.50031L9.765 12.5934C9.96423 12.7997 10.0745 13.076 10.072 13.3628C10.0695 13.6496 9.95446 13.9239 9.75167 14.1267C9.54888 14.3295 9.27456 14.4445 8.98778 14.447C8.701 14.4495 8.42472 14.3392 8.21844 14.14L5.12531 11.0469C4.92027 10.8418 4.80508 10.5636 4.80508 10.2736C4.80508 9.98357 4.92027 9.70542 5.12531 9.50031ZM29.8747 9.50031C30.0797 9.70542 30.1949 9.98357 30.1949 10.2736C30.1949 10.5636 30.0797 10.8418 29.8747 11.0469L26.7816 14.14C26.6807 14.2445 26.56 14.3278 26.4265 14.3851C26.2931 14.4424 26.1496 14.4726 26.0043 14.4739C25.8591 14.4751 25.7151 14.4475 25.5807 14.3925C25.4463 14.3375 25.3241 14.2563 25.2214 14.1536C25.1187 14.0509 25.0375 13.9287 24.9825 13.7943C24.9275 13.6599 24.8999 13.5159 24.9011 13.3707C24.9024 13.2254 24.9326 13.0819 24.9899 12.9485C25.0472 12.815 25.1305 12.6943 25.235 12.5934L28.3281 9.50031C28.5332 9.29527 28.8114 9.18008 29.1014 9.18008C29.3914 9.18008 29.6696 9.29527 29.8747 9.50031ZM17.5 15.3125C18.6521 15.3121 19.784 15.6151 20.782 16.191C21.7799 16.7668 22.6086 17.5952 23.1848 18.5929C23.761 19.5906 24.0644 20.7224 24.0645 21.8745C24.0646 23.0266 23.7614 24.1585 23.1853 25.1563H11.8125C11.2363 24.1583 10.9331 23.0263 10.9333 21.874C10.9335 20.7216 11.2371 19.5897 11.8135 18.5919C12.39 17.5942 13.2191 16.7658 14.2173 16.1901C15.2155 15.6145 16.3477 15.3118 17.5 15.3125ZM25.6156 25.1563C26.152 23.8281 26.354 22.3886 26.2041 20.9641C26.0542 19.5396 25.5569 18.1737 24.7558 16.9863C23.9548 15.7989 22.8744 14.8263 21.6097 14.1539C20.345 13.4815 18.9345 13.1299 17.5022 13.1299C16.0698 13.1299 14.6594 13.4815 13.3947 14.1539C12.1299 14.8263 11.0496 15.7989 10.2485 16.9863C9.44747 18.1737 8.95015 19.5396 8.80024 20.9641C8.65033 22.3886 8.85241 23.8281 9.38875 25.1563H1.09156C0.801482 25.1563 0.523282 25.2715 0.318164 25.4766C0.113046 25.6817 -0.00218773 25.9599 -0.00218773 26.25C-0.00218773 26.5401 0.113046 26.8183 0.318164 27.0234C0.523282 27.2285 0.801482 27.3438 1.09156 27.3438H33.9041C34.1941 27.3438 34.4723 27.2285 34.6775 27.0234C34.8826 26.8183 34.9978 26.5401 34.9978 26.25C34.9978 25.9599 34.8826 25.6817 34.6775 25.4766C34.4723 25.2715 34.1941 25.1563 33.9041 25.1563H25.6134H25.6156ZM-2.29105e-07 21.875C-2.29105e-07 21.5849 0.115234 21.3067 0.320352 21.1016C0.52547 20.8965 0.803669 20.7813 1.09375 20.7813H5.46875C5.75883 20.7813 6.03703 20.8965 6.24215 21.1016C6.44726 21.3067 6.5625 21.5849 6.5625 21.875C6.5625 22.1651 6.44726 22.4433 6.24215 22.6484C6.03703 22.8535 5.75883 22.9688 5.46875 22.9688H1.09375C0.803669 22.9688 0.52547 22.8535 0.320352 22.6484C0.115234 22.4433 -2.29105e-07 22.1651 -2.29105e-07 21.875ZM28.4375 21.875C28.4375 21.5849 28.5527 21.3067 28.7578 21.1016C28.963 20.8965 29.2412 20.7813 29.5312 20.7813H33.9062C34.1963 20.7813 34.4745 20.8965 34.6796 21.1016C34.8848 21.3067 35 21.5849 35 21.875C35 22.1651 34.8848 22.4433 34.6796 22.6484C34.4745 22.8535 34.1963 22.9688 33.9062 22.9688H29.5312C29.2412 22.9688 28.963 22.8535 28.7578 22.6484C28.5527 22.4433 28.4375 22.1651 28.4375 21.875Z" fill="white"/>
</g>
<defs>
<clipPath id="clip0_4_47">
<rect width="35" height="35" fill="white"/>
</clipPath>
</defs>
</svg>
